<svg xmlns="http://www.w3.org/2000/svg" width="88" height="112" viewBox="0 0 88 112" shape-rendering="crispEdges">
<rect x="16" y="8" width="8" height="8" fill="#40bfbf"/>
<rect x="24" y="8" width="8" height="8" fill="#40bfbf"/>
<rect x="32" y="8" width="8" height="8" fill="#40bfbf"/>
<rect x="40" y="8" width="8" height="8" fill="#40bfbf"/>
<rect x="48" y="8" width="8" height="8" fill="#40bfbf"/>
<rect x="56" y="8" width="8" height="8" fill="#40bfbf"/>
<rect x="64" y="8" width="8" height="8" fill="#40bfbf"/>
<rect x="16" y="16" width="8" height="8" fill="#40bfbf"/>
<rect x="24" y="16" width="8" height="8" fill="#40bfbf"/>
<rect x="32" y="16" width="8" height="8" fill="#40bfbf"/>
<rect x="40" y="16" width="8" height="8" fill="#40bfbf"/>
<rect x="48" y="16" width="8" height="8" fill="#40bfbf"/>
<rect x="56" y="16" width="8" height="8" fill="#40bfbf"/>
<rect x="64" y="16" width="8" height="8" fill="#40bfbf"/>
<rect x="16" y="24" width="8" height="8" fill="#40bfbf"/>
<rect x="24" y="24" width="8" height="8" fill="#40bfbf"/>
<rect x="32" y="24" width="8" height="8" fill="#40bfbf"/>
<rect x="40" y="24" width="8" height="8" fill="#40bfbf"/>
<rect x="48" y="24" width="8" height="8" fill="#40bfbf"/>
<rect x="56" y="24" width="8" height="8" fill="#40bfbf"/>
<rect x="64" y="24" width="8" height="8" fill="#40bfbf"/>
<rect x="16" y="32" width="8" height="8" fill="#6b246b"/>
<rect x="24" y="32" width="8" height="8" fill="#6b246b"/>
<rect x="32" y="32" width="8" height="8" fill="#6b246b"/>
<rect x="40" y="32" width="8" height="8" fill="#6b246b"/>
<rect x="48" y="32" width="8" height="8" fill="#6b246b"/>
<rect x="56" y="32" width="8" height="8" fill="#6b246b"/>
<rect x="64" y="32" width="8" height="8" fill="#6b246b"/>
<rect x="8" y="40" width="8" height="8" fill="#40bfbf"/>
<rect x="16" y="40" width="8" height="8" fill="#40bfbf"/>
<rect x="24" y="40" width="8" height="8" fill="#40bfbf"/>
<rect x="32" y="40" width="8" height="8" fill="#40bfbf"/>
<rect x="40" y="40" width="8" height="8" fill="#40bfbf"/>
<rect x="48" y="40" width="8" height="8" fill="#40bfbf"/>
<rect x="56" y="40" width="8" height="8" fill="#40bfbf"/>
<rect x="64" y="40" width="8" height="8" fill="#40bfbf"/>
<rect x="72" y="40" width="8" height="8" fill="#40bfbf"/>
<rect x="16" y="48" width="8" height="8" fill="#bf40bf"/>
<rect x="24" y="48" width="8" height="8" fill="#bf40bf"/>
<rect x="32" y="48" width="8" height="8" fill="#bf40bf"/>
<rect x="40" y="48" width="8" height="8" fill="#bf40bf"/>
<rect x="48" y="48" width="8" height="8" fill="#bf40bf"/>
<rect x="56" y="48" width="8" height="8" fill="#bf40bf"/>
<rect x="64" y="48" width="8" height="8" fill="#bf40bf"/>
<rect x="16" y="56" width="8" height="8" fill="#6b246b"/>
<rect x="24" y="56" width="8" height="8" fill="#bf40bf"/>
<rect x="32" y="56" width="8" height="8" fill="#bf40bf"/>
<rect x="40" y="56" width="8" height="8" fill="#bf40bf"/>
<rect x="48" y="56" width="8" height="8" fill="#bf40bf"/>
<rect x="56" y="56" width="8" height="8" fill="#bf40bf"/>
<rect x="64" y="56" width="8" height="8" fill="#6b246b"/>
<rect x="16" y="64" width="8" height="8" fill="#bf40bf"/>
<rect x="24" y="64" width="8" height="8" fill="#bf40bf"/>
<rect x="32" y="64" width="8" height="8" fill="#bf40bf"/>
<rect x="36" y="68" width="4" height="4" fill="#6b246b"/>
<rect x="40" y="64" width="8" height="8" fill="#bf40bf"/>
<rect x="48" y="64" width="8" height="8" fill="#bf40bf"/>
<rect x="48" y="68" width="4" height="4" fill="#6b246b"/>
<rect x="56" y="64" width="8" height="8" fill="#bf40bf"/>
<rect x="64" y="64" width="8" height="8" fill="#bf40bf"/>
<rect x="16" y="72" width="8" height="8" fill="#bf40bf"/>
<rect x="24" y="72" width="8" height="8" fill="#bf40bf"/>
<rect x="32" y="72" width="8" height="8" fill="#bf40bf"/>
<rect x="40" y="72" width="8" height="8" fill="#bf40bf"/>
<rect x="40" y="72" width="8" height="4" fill="#6b246b"/>
<rect x="48" y="72" width="8" height="8" fill="#bf40bf"/>
<rect x="56" y="72" width="8" height="8" fill="#bf40bf"/>
<rect x="64" y="72" width="8" height="8" fill="#bf40bf"/>
<rect x="8" y="84" width="8" height="4" fill="#bf40bf"/>
<rect x="16" y="80" width="8" height="8" fill="#bf40bf"/>
<rect x="24" y="80" width="8" height="8" fill="#bf40bf"/>
<rect x="32" y="80" width="8" height="8" fill="#bf40bf"/>
<rect x="40" y="80" width="8" height="8" fill="#bf40bf"/>
<rect x="48" y="80" width="8" height="8" fill="#bf40bf"/>
<rect x="56" y="80" width="8" height="8" fill="#bf40bf"/>
<rect x="64" y="80" width="8" height="8" fill="#bf40bf"/>
<rect x="72" y="84" width="8" height="4" fill="#bf40bf"/>
<rect x="16" y="88" width="8" height="8" fill="#bf40bf"/>
<rect x="24" y="88" width="8" height="8" fill="#bf40bf"/>
<rect x="32" y="88" width="8" height="8" fill="#bf40bf"/>
<rect x="40" y="88" width="8" height="8" fill="#bf40bf"/>
<rect x="48" y="88" width="8" height="8" fill="#bf40bf"/>
<rect x="56" y="88" width="8" height="8" fill="#bf40bf"/>
<rect x="64" y="88" width="8" height="8" fill="#bf40bf"/>
<rect x="24" y="96" width="4" height="8" fill="#bf40bf"/>
<rect x="56" y="96" width="4" height="8" fill="#bf40bf"/>
</svg>