<svg xmlns="http://www.w3.org/2000/svg" width="110" height="110" viewBox="0 0 110 110" shape-rendering="crispEdges">
<rect x="20" y="10" width="10" height="10" fill="#80bf40"/>
<rect x="80" y="10" width="10" height="10" fill="#80bf40"/>
<rect x="20" y="20" width="10" height="10" fill="#80bf40"/>
<rect x="30" y="20" width="10" height="10" fill="#80bf40"/>
<rect x="70" y="20" width="10" height="10" fill="#80bf40"/>
<rect x="80" y="20" width="10" height="10" fill="#80bf40"/>
<rect x="20" y="30" width="10" height="10" fill="#bf4080"/>
<rect x="30" y="30" width="10" height="10" fill="#bf4080"/>
<rect x="40" y="30" width="10" height="10" fill="#bf4080"/>
<rect x="50" y="30" width="10" height="10" fill="#bf4080"/>
<rect x="60" y="30" width="10" height="10" fill="#bf4080"/>
<rect x="70" y="30" width="10" height="10" fill="#bf4080"/>
<rect x="80" y="30" width="10" height="10" fill="#bf4080"/>
<rect x="20" y="40" width="10" height="10" fill="#6b2447"/>
<rect x="30" y="40" width="10" height="10" fill="#bf4080"/>
<rect x="40" y="40" width="10" height="10" fill="#bf4080"/>
<rect x="50" y="40" width="10" height="10" fill="#bf4080"/>
<rect x="60" y="40" width="10" height="10" fill="#bf4080"/>
<rect x="70" y="40" width="10" height="10" fill="#bf4080"/>
<rect x="80" y="40" width="10" height="10" fill="#6b2447"/>
<rect x="20" y="50" width="10" height="10" fill="#bf4080"/>
<rect x="25" y="55" width="5" height="5" fill="#6b2447"/>
<rect x="30" y="50" width="10" height="10" fill="#bf4080"/>
<rect x="40" y="50" width="10" height="10" fill="#bf4080"/>
<rect x="50" y="50" width="10" height="10" fill="#bf4080"/>
<rect x="60" y="50" width="10" height="10" fill="#bf4080"/>
<rect x="70" y="50" width="10" height="10" fill="#bf4080"/>
<rect x="80" y="50" width="10" height="10" fill="#bf4080"/>
<rect x="20" y="60" width="10" height="10" fill="#bf4080"/>
<rect x="30" y="60" width="10" height="10" fill="#bf4080"/>
<rect x="30" y="60" width="10" height="5" fill="#6b2447"/>
<rect x="40" y="60" width="10" height="10" fill="#bf4080"/>
<rect x="40" y="60" width="10" height="5" fill="#6b2447"/>
<rect x="50" y="60" width="10" height="10" fill="#bf4080"/>
<rect x="50" y="60" width="10" height="5" fill="#6b2447"/>
<rect x="60" y="60" width="10" height="10" fill="#bf4080"/>
<rect x="60" y="60" width="10" height="5" fill="#6b2447"/>
<rect x="70" y="60" width="10" height="10" fill="#bf4080"/>
<rect x="70" y="60" width="10" height="5" fill="#6b2447"/>
<rect x="80" y="60" width="10" height="10" fill="#bf4080"/>
<rect x="20" y="70" width="10" height="10" fill="#bf4080"/>
<rect x="30" y="70" width="10" height="10" fill="#bf4080"/>
<rect x="40" y="70" width="10" height="10" fill="#bf4080"/>
<rect x="50" y="70" width="10" height="10" fill="#bf4080"/>
<rect x="60" y="70" width="10" height="10" fill="#bf4080"/>
<rect x="70" y="70" width="10" height="10" fill="#bf4080"/>
<rect x="80" y="70" width="10" height="10" fill="#bf4080"/>
<rect x="30" y="80" width="10" height="10" fill="#bf4080"/>
<rect x="40" y="80" width="10" height="10" fill="#bf4080"/>
<rect x="50" y="80" width="10" height="10" fill="#bf4080"/>
<rect x="60" y="80" width="10" height="10" fill="#bf4080"/>
<rect x="70" y="80" width="10" height="10" fill="#bf4080"/>
<rect x="30" y="90" width="5" height="10" fill="#bf4080"/>
<rect x="70" y="90" width="5" height="10" fill="#bf4080"/>
</svg>