<svg xmlns="http://www.w3.org/2000/svg" width="88" height="88" viewBox="0 0 88 88" shape-rendering="crispEdges">
<rect x="32" y="8" width="8" height="8" fill="#bf4040"/>
<rect x="40" y="8" width="8" height="8" fill="#bf4040"/>
<rect x="48" y="8" width="8" height="8" fill="#bf4040"/>
<rect x="24" y="16" width="8" height="8" fill="#bf4040"/>
<rect x="32" y="16" width="8" height="8" fill="#bf4040"/>
<rect x="40" y="16" width="8" height="8" fill="#bf4040"/>
<rect x="48" y="16" width="8" height="8" fill="#bf4040"/>
<rect x="56" y="16" width="8" height="8" fill="#bf4040"/>
<rect x="16" y="24" width="8" height="8" fill="#4080bf"/>
<rect x="24" y="24" width="8" height="8" fill="#4080bf"/>
<rect x="32" y="24" width="8" height="8" fill="#4080bf"/>
<rect x="40" y="24" width="8" height="8" fill="#4080bf"/>
<rect x="48" y="24" width="8" height="8" fill="#4080bf"/>
<rect x="56" y="24" width="8" height="8" fill="#4080bf"/>
<rect x="64" y="24" width="8" height="8" fill="#4080bf"/>
<rect x="16" y="32" width="8" height="8" fill="#4080bf"/>
<rect x="24" y="32" width="8" height="8" fill="#4080bf"/>
<rect x="32" y="32" width="8" height="8" fill="#4080bf"/>
<rect x="34" y="32" width="4" height="8" fill="#24476b"/>
<rect x="40" y="32" width="8" height="8" fill="#4080bf"/>
<rect x="48" y="32" width="8" height="8" fill="#4080bf"/>
<rect x="50" y="32" width="4" height="8" fill="#24476b"/>
<rect x="56" y="32" width="8" height="8" fill="#4080bf"/>
<rect x="64" y="32" width="8" height="8" fill="#4080bf"/>
<rect x="16" y="40" width="8" height="8" fill="#4080bf"/>
<rect x="24" y="40" width="8" height="8" fill="#4080bf"/>
<rect x="32" y="40" width="8" height="8" fill="#4080bf"/>
<rect x="36" y="44" width="4" height="4" fill="#24476b"/>
<rect x="40" y="40" width="8" height="8" fill="#4080bf"/>
<rect x="48" y="40" width="8" height="8" fill="#4080bf"/>
<rect x="48" y="44" width="4" height="4" fill="#24476b"/>
<rect x="56" y="40" width="8" height="8" fill="#4080bf"/>
<rect x="64" y="40" width="8" height="8" fill="#4080bf"/>
<rect x="16" y="48" width="8" height="8" fill="#4080bf"/>
<rect x="24" y="48" width="8" height="8" fill="#4080bf"/>
<rect x="32" y="48" width="8" height="8" fill="#4080bf"/>
<rect x="40" y="48" width="8" height="8" fill="#4080bf"/>
<rect x="40" y="48" width="8" height="4" fill="#24476b"/>
<rect x="48" y="48" width="8" height="8" fill="#4080bf"/>
<rect x="56" y="48" width="8" height="8" fill="#4080bf"/>
<rect x="64" y="48" width="8" height="8" fill="#4080bf"/>
<rect x="16" y="60" width="8" height="4" fill="#4080bf"/>
<rect x="24" y="56" width="8" height="8" fill="#4080bf"/>
<rect x="32" y="56" width="8" height="8" fill="#4080bf"/>
<rect x="40" y="56" width="8" height="8" fill="#4080bf"/>
<rect x="48" y="56" width="8" height="8" fill="#4080bf"/>
<rect x="56" y="56" width="8" height="8" fill="#4080bf"/>
<rect x="64" y="60" width="8" height="4" fill="#4080bf"/>
<rect x="24" y="64" width="8" height="8" fill="#4080bf"/>
<rect x="32" y="64" width="8" height="8" fill="#4080bf"/>
<rect x="40" y="64" width="8" height="8" fill="#4080bf"/>
<rect x="48" y="64" width="8" height="8" fill="#4080bf"/>
<rect x="56" y="64" width="8" height="8" fill="#4080bf"/>
<rect x="16" y="72" width="8" height="8" fill="#4080bf"/>
<rect x="64" y="72" width="8" height="8" fill="#4080bf"/>
</svg>